<?xml version="1.0" encoding="UTF-8" standalone="no"?>
<svg
   height="24px"
   viewBox="0 0 24 24"
   width="24px"
   fill="#FFFFFF"
   version="1.1"
   id="svg2"
   sodipodi:docname="volume_up_white_24dp.svg"
   inkscape:version="1.3.1 (91b66b0783, 2023-11-16)"
   xmlns:inkscape="http://www.inkscape.org/namespaces/inkscape"
   xmlns:sodipodi="http://sodipodi.sourceforge.net/DTD/sodipodi-0.dtd"
   xmlns="http://www.w3.org/2000/svg"
   xmlns:svg="http://www.w3.org/2000/svg">
  <defs
     id="defs2" />
  <sodipodi:namedview
     id="namedview2"
     pagecolor="#ffffff"
     bordercolor="#000000"
     borderopacity="0.25"
     inkscape:showpageshadow="2"
     inkscape:pageopacity="0.0"
     inkscape:pagecheckerboard="0"
     inkscape:deskcolor="#d1d1d1"
     inkscape:zoom="12.094472"
     inkscape:cx="28.980181"
     inkscape:cy="23.77119"
     inkscape:window-width="1920"
     inkscape:window-height="1017"
     inkscape:window-x="1912"
     inkscape:window-y="-8"
     inkscape:window-maximized="1"
     inkscape:current-layer="svg2" />
  <g
     id="g2"
     transform="matrix(1.1481393,0,0,1.1481393,-0.99218881,-1.7363304)"
     style="fill:#ffffff">
    <path
       d="m 3,9 v 6 l 9,5 V 4 C 8.986037,5.6417221 5.990898,7.3168464 3,9 Z M 10.730816,6.6960171 10.672351,17.420914 4.4738124,13.99391 4.5030451,10.123021 Z M 15.886114,12 C 15.886114,10.429585 14,9.9285871 14,9.9285871 V 13.973715 C 14.076833,13.886833 15.886114,13.256425 15.886114,12 Z M 14,5.6270767 v 2.06 C 13.879038,7.5531668 17.742996,8.83 17.742996,12 c 0,3.17 -3.810309,4.61488 -3.742996,4.576017 v 2.06 C 14,18.636017 19.742996,16.28 19.742996,12 19.742996,7.72 13.917429,5.5723995 14,5.6270767 Z"
       id="path2"
       style="fill:#ffffff"
       sodipodi:nodetypes="ccccccccccsccsccsccsc"
       inkscape:label="path2" />
  </g>
</svg>
